<svg xmlns="http://www.w3.org/2000/svg" width="34.492" height="16.814" viewBox="0 0 34.492 16.814">
  <g id="组_41" data-name="组 41" transform="translate(-1169.713 -633.593)">
    <g id="减去_2" data-name="减去 2" transform="translate(1169.713 633.593)" fill="#afafaf">
      <path d="M 7.868951320648193 14.0605354309082 C 7.225749969482422 13.79220676422119 6.60669469833374 13.48316860198975 6.017200469970703 13.13498210906982 C 4.117207050323486 12.01273727416992 2.619018316268921 10.54388236999512 1.649752855300903 8.860129356384277 C 2.455734252929688 7.018783569335938 3.873058080673218 5.380435943603516 5.781270503997803 4.093072414398193 C 6.378109455108643 3.690416812896729 7.010581970214844 3.330707311630249 7.672470569610596 3.016089916229248 C 6.586581707000732 4.733126640319824 6.024826526641846 6.709949970245361 6.101540565490723 8.772252082824707 C 6.172290325164795 10.67382049560547 6.797955513000488 12.48729610443115 7.868951320648193 14.0605354309082 Z" stroke="none"/>
      <path d="M 4.764242172241211 10.3554515838623 C 4.676242351531982 9.853837013244629 4.621757984161377 9.343666076660156 4.602570533752441 8.828001976013184 C 4.579309463500977 8.202633857727051 4.606765270233154 7.584255695343018 4.682491302490234 6.976941108703613 C 4.159633636474609 7.537086009979248 3.718836069107056 8.137384414672852 3.367862224578857 8.768328666687012 C 3.762094259262085 9.331150054931641 4.229991912841797 9.86271858215332 4.764242172241211 10.3554515838623 M 13.492600440979 16.81405258178711 C 10.51090049743652 16.67430305480957 7.66217041015625 15.8487024307251 5.254350662231445 14.42652225494385 C 2.890790462493896 13.03046226501465 1.0738605260849 11.13750267028809 5.328369070412009e-07 8.952292442321777 C 0.8544405102729797 6.564492225646973 2.563500642776489 4.454482555389404 4.942360401153564 2.849592447280884 C 7.348730564117432 1.226142406463623 10.26823043823242 0.2407524436712265 13.38522052764893 -4.755096597364172e-05 C 9.682080268859863 1.742752432823181 7.465310573577881 5.082002639770508 7.600500583648682 8.716492652893066 C 7.727760314941406 12.13676261901855 9.985660552978516 15.23883247375488 13.49307060241699 16.81214332580566 L 13.492600440979 16.81405258178711 Z" stroke="none" fill="#afafaf"/>
    </g>
    <g id="减去_3" data-name="减去 3" transform="translate(1204.205 650.406) rotate(180)" fill="#afafaf">
      <path d="M 7.672650337219238 13.79777717590332 C 7.010540962219238 13.48309803009033 6.378249645233154 13.12348365783691 5.781257629394531 12.72072887420654 C 3.873054027557373 11.43335628509521 2.455731391906738 9.795000076293945 1.649757266044617 7.953660011291504 C 2.619029998779297 6.269855976104736 4.117105960845947 4.800989151000977 6.016847610473633 3.678788900375366 C 6.606521606445312 3.330467224121094 7.225829124450684 3.021303176879883 7.869231224060059 2.752908706665039 C 6.798069477081299 4.326249599456787 6.172274112701416 6.139873027801514 6.101537704467773 8.041539192199707 C 6.024828433990479 10.10379409790039 6.586591720581055 12.08059310913086 7.672650337219238 13.79777717590332 Z" stroke="none"/>
      <path d="M 4.682519435882568 9.836871147155762 C 4.606779098510742 9.229554176330566 4.579307079315186 8.61112117767334 4.602567672729492 7.98577880859375 C 4.621755123138428 7.469962596893311 4.676207065582275 6.959953308105469 4.7642502784729 6.458199024200439 C 4.230045795440674 6.950933456420898 3.762084245681763 7.482600212097168 3.367859601974487 8.045440673828125 C 3.718890428543091 8.676486015319824 4.159552574157715 9.276646614074707 4.682519435882568 9.836871147155762 M 13.37978744506836 16.81341934204102 C 10.26480770111084 16.57184982299805 7.347197532653809 15.58660888671875 4.942357540130615 13.96420860290527 C 2.563347578048706 12.35919857025146 0.8543075323104858 10.2489185333252 7.513275249948492e-06 7.861498832702637 C 1.074077486991882 5.675879001617432 2.890837430953979 3.783198833465576 5.253947734832764 2.387288808822632 C 7.663077354431152 0.964198887348175 10.51348781585693 0.1385288834571838 13.49702739715576 -0.0004611181502696127 C 9.987387657165527 1.572958827018738 7.727797508239746 4.675098896026611 7.600497722625732 8.097298622131348 C 7.465407371520996 11.72904872894287 9.680097579956055 15.06813907623291 13.38029766082764 16.81151962280273 L 13.37978744506836 16.81341934204102 Z" stroke="none" fill="#afafaf"/>
    </g>
    <circle id="椭圆_17" data-name="椭圆 17" cx="7" cy="7" r="7" transform="translate(1180 635)" fill="#afafaf"/>
  </g>
</svg>
