<svg xmlns="http://www.w3.org/2000/svg" width="31.169" height="31.169" viewBox="0 0 31.169 31.169">
  <g id="组_17" data-name="组 17" transform="translate(-928.416 -45.416)">
    <path id="交叉_1" data-name="交叉 1" d="M0,22V0C.107,0,.215,0,.323,0A10.842,10.842,0,0,1,11,11,10.842,10.842,0,0,1,.323,22C.215,22,.107,22,0,22Z" transform="translate(944 50)" fill="#fc0"/>
    <path id="交叉_2" data-name="交叉 2" d="M0,22V0C.107,0,.215,0,.323,0A10.842,10.842,0,0,1,11,11,10.842,10.842,0,0,1,.323,22C.215,22,.107,22,0,22Z" transform="translate(944 72) rotate(180)" fill="#00376e"/>
    <g id="组_16" data-name="组 16" transform="translate(-4 -4)">
      <g id="组_12" data-name="组 12" transform="matrix(0.921, 0.391, -0.391, 0.921, 952.411, 49.49)">
        <path id="多边形_2" data-name="多边形 2" d="M2,0,4,4H0Z" fill="#fb0"/>
        <path id="多边形_3" data-name="多边形 3" d="M2,0,4,4H0Z" transform="translate(4 32.001) rotate(180)" fill="#00376e"/>
      </g>
      <g id="组_13" data-name="组 13" transform="matrix(0.391, -0.921, 0.921, 0.391, 932.491, 60.59)">
        <path id="路径_3" data-name="路径 3" d="M2,0,4,4H0Z" fill="#00376e"/>
        <path id="多边形_3-2" data-name="多边形 3" d="M2,0,4,4H0Z" transform="translate(4 32.001) rotate(180)" fill="#fb0"/>
      </g>
      <g id="组_14" data-name="组 14" transform="translate(933.914 72.849) rotate(-112)">
        <path id="多边形_2-2" data-name="多边形 2" d="M2,0,4,4H0Z" fill="#00376e"/>
        <path id="多边形_3-3" data-name="多边形 3" d="M2,0,4,4H0Z" transform="translate(4 32.001) rotate(180)" fill="#fb0"/>
      </g>
      <g id="组_15" data-name="组 15" transform="translate(955.849 79.086) rotate(158)">
        <path id="多边形_2-3" data-name="多边形 2" d="M2,0,4,4H0Z" fill="#fb0"/>
        <path id="多边形_3-4" data-name="多边形 3" d="M2,0,4,4H0Z" transform="translate(4 32.001) rotate(180)" fill="#00376e"/>
      </g>
    </g>
  </g>
</svg>
